#N canvas 1448 0 2373 1916 12;
#X obj 1198 115 tgl 15 0 empty empty empty 17 7 0 10 #fcfcfc #000000
#000000 0 1;
#X obj 1198 167 bng 15 250 50 0 empty empty empty 17 7 0 10 #fcfcfc
#000000 #000000;
#X obj 1198 193 int 1;
#X floatatom 1198 225 5 0 0 0 - - - 0;
#X obj 1282 211 + 1;
#X obj 1199 289 + 1;
#X floatatom 1199 316 5 0 0 0 - - - 0;
#X text 1317 211 sequence adds 1;
#X text 1239 232 modulo mathmatical function;
#X text 1239 263 divides count by number of total steps remainder is
step count;
#X obj 1137 351 sel 1;
#X obj 1181 351 sel 2;
#X obj 1224 351 sel 3;
#X obj 1268 351 sel 4;
#X obj 1312 351 sel 5;
#X obj 1356 351 sel 6;
#X obj 1400 351 sel 7;
#X obj 1444 351 sel 8;
#X obj 1487 351 sel 9;
#X obj 1531 351 sel 10;
#X obj 1580 351 sel 11;
#X obj 1630 351 sel 12;
#X obj 1137 379 bng 15 250 50 0 empty empty empty 17 7 0 10 #fcfcfc
#000000 #000000;
#X obj 1181 379 bng 15 250 50 0 empty empty empty 17 7 0 10 #fcfcfc
#000000 #000000;
#X obj 1224 379 bng 15 250 50 0 empty empty empty 17 7 0 10 #fcfcfc
#000000 #000000;
#X obj 1268 379 bng 15 250 50 0 empty empty empty 17 7 0 10 #fcfcfc
#000000 #000000;
#X obj 1312 379 bng 15 250 50 0 empty empty empty 17 7 0 10 #fcfcfc
#000000 #000000;
#X obj 1356 379 bng 15 250 50 0 empty empty empty 17 7 0 10 #fcfcfc
#000000 #000000;
#X obj 1400 379 bng 15 250 50 0 empty empty empty 17 7 0 10 #fcfcfc
#000000 #000000;
#X obj 1444 379 bng 15 250 50 0 empty empty empty 17 7 0 10 #fcfcfc
#000000 #000000;
#X obj 1487 379 bng 15 250 50 0 empty empty empty 17 7 0 10 #fcfcfc
#000000 #000000;
#X obj 1531 378 bng 15 250 50 0 empty empty empty 17 7 0 10 #fcfcfc
#000000 #000000;
#X obj 1580 378 bng 15 250 50 0 empty empty empty 17 7 0 10 #fcfcfc
#000000 #000000;
#X obj 1630 379 bng 15 250 50 0 empty empty empty 17 7 0 10 #fcfcfc
#000000 #000000;
#X obj 1285 545 mtof;
#X msg 1181 428 62;
#X msg 1224 429 65;
#X msg 1137 427 69;
#X floatatom 1301 576 5 0 0 0 - - - 0;
#X obj 1285 601 osc~;
#X obj 1285 632 *~ 0.5;
#X obj 1365 501 vsl 15 128 0 1 0 0 empty empty empty 0 -9 0 10 #c7c6ff
#000000 #000000 0 1;
#X text 1185 400 d;
#X text 1230 400 f;
#X text 1139 399 a;
#X msg 1268 429 69;
#X text 1275 401 a;
#X msg 1356 427 69;
#X text 1358 399 a;
#X msg 1400 427 67;
#X text 1406 395 g;
#X msg 1444 426 65;
#X text 1447 398 f;
#X text 1537 397 f;
#X msg 1487 427 64;
#X text 1494 396 e;
#X msg 1531 426 65;
#X obj 1198 135 metro;
#X msg 1249 117 tempo \$1 permin;
#X obj 1198 254 % 12;
#X text 1363 426 comment;
#X obj 167 187 bng 15 250 50 0 empty empty empty 17 7 0 10 #fcfcfc
#000000 #000000;
#X obj 74 272 lop~ 6000;
#X obj 74 296 *~;
#X obj 74 248 phasor~;
#X floatatom 74 143 5 0 0 0 - - - 0;
#X obj 74 166 mtof;
#X floatatom 74 191 5 0 0 0 - - - 0;
#X obj 167 254 line 0 3;
#X floatatom 167 278 5 0 0 0 - - - 0;
#X msg 246 234 0 700;
#X obj 246 202 delay 2000;
#X obj 167 155 metro 10000;
#X obj 844 1253 output~;
#X obj 843 1084 catch~ out;
#X obj 74 349 throw~ out;
#X floatatom 241 126 5 0 0 0 - - - 0;
#X floatatom 313 163 5 0 0 0 - - - 0;
#X text 150 71 loop length;
#X text 354 162 note length;
#X text 14 142 note;
#X text 54 14 AMBIANCE;
#X text 1252 12 HOWLS MOVING CASTLE;
#X obj 241 69 random 30000;
#X obj 241 93 + 10000;
#X obj 167 126 r toggle;
#X obj 313 140 + 10000;
#X obj 74 47 r LFO;
#X obj 74 119 +;
#X floatatom 92 96 5 0 0 0 - - - 0;
#X obj 74 320 *~ 0.1;
#X obj 241 45 r randomize;
#X obj 18 1258 loadbang;
#X obj 18 1290 bng 15 250 50 0 empty empty empty 17 7 0 10 #fcfcfc
#000000 #000000;
#X obj 18 1317 s randomize;
#X obj 18 1170 tgl 15 0 empty empty empty 17 7 0 10 #fcfcfc #000000
#000000 0 1;
#X obj 18 1197 s toggle;
#X obj 120 1201 loadbang;
#X msg 120 1234 36;
#X msg 183 1234 55;
#X msg 249 1234 60;
#X msg 307 1234 69;
#X msg 366 1234 74;
#X msg 425 1234 75;
#X obj 120 1258 s note1;
#X obj 249 1258 s note3;
#X obj 183 1258 s note2;
#X obj 307 1258 s note4;
#X obj 366 1258 s note5;
#X obj 425 1258 s note6;
#X text 197 1197 pitches for osc;
#X obj 612 1188 r toggle;
#X obj 612 1212 metro 3;
#X obj 612 1236 snapshot~;
#X floatatom 612 1260 5 0 0 0 - - - 0;
#X obj 612 1283 * 0.075;
#X obj 612 1307 s LFO;
#X text 15 1148 MASTER TOGGLE;
#X text 16 1231 RANDOMIZE;
#X obj 686 1217 osc~ 4;
#X obj 92 72 r note1;
#X obj 549 187 bng 15 250 50 0 empty empty empty 17 7 0 10 #fcfcfc
#000000 #000000;
#X obj 456 272 lop~ 6000;
#X obj 456 296 *~;
#X obj 456 248 phasor~;
#X floatatom 456 143 5 0 0 0 - - - 0;
#X obj 456 166 mtof;
#X floatatom 456 191 5 0 0 0 - - - 0;
#X obj 549 254 line 0 3;
#X floatatom 549 278 5 0 0 0 - - - 0;
#X msg 628 234 0 700;
#X obj 628 202 delay 2000;
#X obj 549 155 metro 10000;
#X obj 456 349 throw~ out;
#X floatatom 623 126 5 0 0 0 - - - 0;
#X floatatom 695 163 5 0 0 0 - - - 0;
#X obj 623 69 random 30000;
#X obj 623 93 + 10000;
#X obj 549 126 r toggle;
#X obj 695 140 + 10000;
#X obj 456 47 r LFO;
#X obj 456 119 +;
#X floatatom 474 96 5 0 0 0 - - - 0;
#X obj 456 320 *~ 0.1;
#X obj 623 45 r randomize;
#X obj 695 92 r randomize;
#X obj 313 92 r randomize;
#X obj 168 548 bng 15 250 50 0 empty empty empty 17 7 0 10 #fcfcfc
#000000 #000000;
#X obj 75 633 lop~ 6000;
#X obj 75 657 *~;
#X obj 75 609 phasor~;
#X floatatom 75 504 5 0 0 0 - - - 0;
#X obj 75 527 mtof;
#X floatatom 75 552 5 0 0 0 - - - 0;
#X obj 168 615 line 0 3;
#X floatatom 168 639 5 0 0 0 - - - 0;
#X msg 247 595 0 700;
#X obj 247 563 delay 2000;
#X obj 168 516 metro 10000;
#X obj 75 710 throw~ out;
#X floatatom 242 487 5 0 0 0 - - - 0;
#X floatatom 314 524 5 0 0 0 - - - 0;
#X obj 242 430 random 30000;
#X obj 242 454 + 10000;
#X obj 168 487 r toggle;
#X obj 314 501 + 10000;
#X obj 75 408 r LFO;
#X obj 75 480 +;
#X floatatom 93 457 5 0 0 0 - - - 0;
#X obj 75 681 *~ 0.1;
#X obj 242 406 r randomize;
#X obj 550 548 bng 15 250 50 0 empty empty empty 17 7 0 10 #fcfcfc
#000000 #000000;
#X obj 457 633 lop~ 6000;
#X obj 457 657 *~;
#X obj 457 609 phasor~;
#X floatatom 457 504 5 0 0 0 - - - 0;
#X obj 457 527 mtof;
#X floatatom 457 552 5 0 0 0 - - - 0;
#X obj 550 615 line 0 3;
#X floatatom 550 639 5 0 0 0 - - - 0;
#X msg 629 595 0 700;
#X obj 629 563 delay 2000;
#X obj 550 516 metro 10000;
#X obj 457 710 throw~ out;
#X floatatom 624 487 5 0 0 0 - - - 0;
#X floatatom 696 524 5 0 0 0 - - - 0;
#X obj 624 430 random 30000;
#X obj 624 454 + 10000;
#X obj 550 487 r toggle;
#X obj 696 501 + 10000;
#X obj 457 408 r LFO;
#X obj 457 480 +;
#X floatatom 475 457 5 0 0 0 - - - 0;
#X obj 457 681 *~ 0.1;
#X obj 624 406 r randomize;
#X obj 696 453 r randomize;
#X obj 314 453 r randomize;
#X obj 169 907 bng 15 250 50 0 empty empty empty 17 7 0 10 #fcfcfc
#000000 #000000;
#X obj 76 992 lop~ 6000;
#X obj 76 1016 *~;
#X obj 76 968 phasor~;
#X floatatom 76 863 5 0 0 0 - - - 0;
#X obj 76 886 mtof;
#X floatatom 76 911 5 0 0 0 - - - 0;
#X obj 169 974 line 0 3;
#X floatatom 169 998 5 0 0 0 - - - 0;
#X msg 248 954 0 700;
#X obj 248 922 delay 2000;
#X obj 169 875 metro 10000;
#X obj 76 1069 throw~ out;
#X floatatom 243 846 5 0 0 0 - - - 0;
#X floatatom 315 883 5 0 0 0 - - - 0;
#X obj 243 789 random 30000;
#X obj 243 813 + 10000;
#X obj 169 846 r toggle;
#X obj 315 860 + 10000;
#X obj 76 767 r LFO;
#X obj 76 839 +;
#X floatatom 94 816 5 0 0 0 - - - 0;
#X obj 76 1040 *~ 0.1;
#X obj 243 765 r randomize;
#X obj 551 907 bng 15 250 50 0 empty empty empty 17 7 0 10 #fcfcfc
#000000 #000000;
#X obj 458 992 lop~ 6000;
#X obj 458 1016 *~;
#X obj 458 968 phasor~;
#X floatatom 458 863 5 0 0 0 - - - 0;
#X obj 458 886 mtof;
#X floatatom 458 911 5 0 0 0 - - - 0;
#X obj 551 974 line 0 3;
#X floatatom 551 998 5 0 0 0 - - - 0;
#X msg 630 954 0 700;
#X obj 630 922 delay 2000;
#X obj 551 875 metro 10000;
#X obj 458 1069 throw~ out;
#X floatatom 625 846 5 0 0 0 - - - 0;
#X floatatom 697 883 5 0 0 0 - - - 0;
#X obj 625 789 random 30000;
#X obj 625 813 + 10000;
#X obj 551 846 r toggle;
#X obj 697 860 + 10000;
#X obj 458 767 r LFO;
#X obj 458 839 +;
#X floatatom 476 816 5 0 0 0 - - - 0;
#X obj 458 1040 *~ 0.1;
#X obj 625 765 r randomize;
#X obj 697 812 r randomize;
#X obj 315 812 r randomize;
#X obj 474 72 r note2;
#X obj 93 433 r note3;
#X obj 475 433 r note4;
#X obj 94 792 r note5;
#X obj 476 792 r note6;
#X obj 915 1116 hip~ 600;
#X obj 915 1140 delwrite~ delBuff 900;
#X obj 915 1188 *~ 0.9;
#X obj 915 1212 lop~ 4000;
#X obj 915 1236 throw~ out;
#X obj 915 1164 delread~ delBuff 900;
#X obj 1284 668 output~;
#X msg 549 220 1 300;
#X msg 167 220 1 300;
#X msg 168 581 1 300;
#X msg 550 581 1 300;
#X msg 551 940 1 300;
#X msg 169 940 1 300;
#X obj 315 836 random 3000;
#X obj 697 836 random 3000;
#X obj 696 477 random 3000;
#X obj 314 477 random 3000;
#X obj 695 116 random 3000;
#X obj 313 116 random 3000;
#X obj 1249 59 loadbang;
#X msg 1249 83 120;
#X connect 0 0 57 0;
#X connect 1 0 2 0;
#X connect 2 0 3 0;
#X connect 2 0 4 0;
#X connect 3 0 59 0;
#X connect 4 0 2 1;
#X connect 5 0 6 0;
#X connect 6 0 10 0;
#X connect 6 0 11 0;
#X connect 6 0 12 0;
#X connect 6 0 13 0;
#X connect 6 0 14 0;
#X connect 6 0 15 0;
#X connect 6 0 16 0;
#X connect 6 0 17 0;
#X connect 6 0 18 0;
#X connect 6 0 19 0;
#X connect 6 0 20 0;
#X connect 6 0 21 0;
#X connect 10 0 22 0;
#X connect 11 0 23 0;
#X connect 12 0 24 0;
#X connect 13 0 25 0;
#X connect 14 0 26 0;
#X connect 15 0 27 0;
#X connect 16 0 28 0;
#X connect 17 0 29 0;
#X connect 18 0 30 0;
#X connect 19 0 31 0;
#X connect 20 0 32 0;
#X connect 21 0 33 0;
#X connect 22 0 37 0;
#X connect 23 0 35 0;
#X connect 24 0 36 0;
#X connect 25 0 45 0;
#X connect 27 0 47 0;
#X connect 28 0 49 0;
#X connect 29 0 51 0;
#X connect 30 0 54 0;
#X connect 31 0 56 0;
#X connect 34 0 38 0;
#X connect 34 0 39 0;
#X connect 35 0 34 0;
#X connect 36 0 34 0;
#X connect 37 0 34 0;
#X connect 39 0 40 0;
#X connect 40 0 258 0;
#X connect 41 0 40 1;
#X connect 45 0 34 0;
#X connect 47 0 34 0;
#X connect 49 0 34 0;
#X connect 51 0 34 0;
#X connect 54 0 34 0;
#X connect 56 0 34 0;
#X connect 57 0 1 0;
#X connect 58 0 57 0;
#X connect 59 0 5 0;
#X connect 61 0 260 0;
#X connect 61 0 71 0;
#X connect 62 0 63 0;
#X connect 63 0 90 0;
#X connect 64 0 62 0;
#X connect 65 0 66 0;
#X connect 66 0 67 0;
#X connect 67 0 64 0;
#X connect 68 0 69 0;
#X connect 69 0 63 1;
#X connect 70 0 68 0;
#X connect 71 0 70 0;
#X connect 72 0 61 0;
#X connect 74 0 252 0;
#X connect 74 0 73 0;
#X connect 74 0 73 1;
#X connect 76 0 72 1;
#X connect 77 0 71 1;
#X connect 83 0 84 0;
#X connect 84 0 76 0;
#X connect 85 0 72 0;
#X connect 86 0 77 0;
#X connect 87 0 88 0;
#X connect 88 0 65 0;
#X connect 89 0 88 1;
#X connect 90 0 75 0;
#X connect 91 0 83 0;
#X connect 92 0 93 0;
#X connect 93 0 94 0;
#X connect 95 0 96 0;
#X connect 97 0 98 0;
#X connect 97 0 99 0;
#X connect 97 0 101 0;
#X connect 97 0 102 0;
#X connect 97 0 103 0;
#X connect 97 0 100 0;
#X connect 98 0 104 0;
#X connect 99 0 106 0;
#X connect 100 0 105 0;
#X connect 101 0 107 0;
#X connect 102 0 108 0;
#X connect 103 0 109 0;
#X connect 111 0 112 0;
#X connect 112 0 113 0;
#X connect 113 0 114 0;
#X connect 114 0 115 0;
#X connect 115 0 116 0;
#X connect 119 0 113 0;
#X connect 120 0 89 0;
#X connect 121 0 259 0;
#X connect 121 0 131 0;
#X connect 122 0 123 0;
#X connect 123 0 143 0;
#X connect 124 0 122 0;
#X connect 125 0 126 0;
#X connect 126 0 127 0;
#X connect 127 0 124 0;
#X connect 128 0 129 0;
#X connect 129 0 123 1;
#X connect 130 0 128 0;
#X connect 131 0 130 0;
#X connect 132 0 121 0;
#X connect 134 0 132 1;
#X connect 135 0 131 1;
#X connect 136 0 137 0;
#X connect 137 0 134 0;
#X connect 138 0 132 0;
#X connect 139 0 135 0;
#X connect 140 0 141 0;
#X connect 141 0 125 0;
#X connect 142 0 141 1;
#X connect 143 0 133 0;
#X connect 144 0 136 0;
#X connect 145 0 269 0;
#X connect 146 0 270 0;
#X connect 147 0 261 0;
#X connect 147 0 157 0;
#X connect 148 0 149 0;
#X connect 149 0 169 0;
#X connect 150 0 148 0;
#X connect 151 0 152 0;
#X connect 152 0 153 0;
#X connect 153 0 150 0;
#X connect 154 0 155 0;
#X connect 155 0 149 1;
#X connect 156 0 154 0;
#X connect 157 0 156 0;
#X connect 158 0 147 0;
#X connect 160 0 158 1;
#X connect 161 0 157 1;
#X connect 162 0 163 0;
#X connect 163 0 160 0;
#X connect 164 0 158 0;
#X connect 165 0 161 0;
#X connect 166 0 167 0;
#X connect 167 0 151 0;
#X connect 168 0 167 1;
#X connect 169 0 159 0;
#X connect 170 0 162 0;
#X connect 171 0 262 0;
#X connect 171 0 181 0;
#X connect 172 0 173 0;
#X connect 173 0 193 0;
#X connect 174 0 172 0;
#X connect 175 0 176 0;
#X connect 176 0 177 0;
#X connect 177 0 174 0;
#X connect 178 0 179 0;
#X connect 179 0 173 1;
#X connect 180 0 178 0;
#X connect 181 0 180 0;
#X connect 182 0 171 0;
#X connect 184 0 182 1;
#X connect 185 0 181 1;
#X connect 186 0 187 0;
#X connect 187 0 184 0;
#X connect 188 0 182 0;
#X connect 189 0 185 0;
#X connect 190 0 191 0;
#X connect 191 0 175 0;
#X connect 192 0 191 1;
#X connect 193 0 183 0;
#X connect 194 0 186 0;
#X connect 195 0 267 0;
#X connect 196 0 268 0;
#X connect 197 0 264 0;
#X connect 197 0 207 0;
#X connect 198 0 199 0;
#X connect 199 0 219 0;
#X connect 200 0 198 0;
#X connect 201 0 202 0;
#X connect 202 0 203 0;
#X connect 203 0 200 0;
#X connect 204 0 205 0;
#X connect 205 0 199 1;
#X connect 206 0 204 0;
#X connect 207 0 206 0;
#X connect 208 0 197 0;
#X connect 210 0 208 1;
#X connect 211 0 207 1;
#X connect 212 0 213 0;
#X connect 213 0 210 0;
#X connect 214 0 208 0;
#X connect 215 0 211 0;
#X connect 216 0 217 0;
#X connect 217 0 201 0;
#X connect 218 0 217 1;
#X connect 219 0 209 0;
#X connect 220 0 212 0;
#X connect 221 0 263 0;
#X connect 221 0 231 0;
#X connect 222 0 223 0;
#X connect 223 0 243 0;
#X connect 224 0 222 0;
#X connect 225 0 226 0;
#X connect 226 0 227 0;
#X connect 227 0 224 0;
#X connect 228 0 229 0;
#X connect 229 0 223 1;
#X connect 230 0 228 0;
#X connect 231 0 230 0;
#X connect 232 0 221 0;
#X connect 234 0 232 1;
#X connect 235 0 231 1;
#X connect 236 0 237 0;
#X connect 237 0 234 0;
#X connect 238 0 232 0;
#X connect 239 0 235 0;
#X connect 240 0 241 0;
#X connect 241 0 225 0;
#X connect 242 0 241 1;
#X connect 243 0 233 0;
#X connect 244 0 236 0;
#X connect 245 0 266 0;
#X connect 246 0 265 0;
#X connect 247 0 142 0;
#X connect 248 0 168 0;
#X connect 249 0 192 0;
#X connect 250 0 218 0;
#X connect 251 0 242 0;
#X connect 252 0 253 0;
#X connect 254 0 255 0;
#X connect 255 0 256 0;
#X connect 257 0 254 0;
#X connect 259 0 128 0;
#X connect 260 0 68 0;
#X connect 261 0 154 0;
#X connect 262 0 178 0;
#X connect 263 0 228 0;
#X connect 264 0 204 0;
#X connect 265 0 215 0;
#X connect 266 0 239 0;
#X connect 267 0 189 0;
#X connect 268 0 165 0;
#X connect 269 0 139 0;
#X connect 270 0 86 0;
#X connect 271 0 272 0;
#X connect 271 0 0 0;
#X connect 272 0 58 0;
